<svg width="1200" height="800" viewBox="0 0 1200 800" fill="none" xmlns="http://www.w3.org/2000/svg">
  <rect width="1200" height="800" rx="36" fill="#0C2A2B"/>
  <rect x="70" y="72" width="1060" height="656" rx="28" fill="#123E40"/>
  <rect x="140" y="130" width="420" height="540" rx="22" fill="#1B5658"/>
  <rect x="640" y="130" width="420" height="260" rx="22" fill="#1B5658"/>
  <rect x="640" y="410" width="420" height="260" rx="22" fill="#1B5658"/>
  <circle cx="350" cy="320" r="120" fill="#E7FFFA"/>
  <rect x="324" y="254" width="52" height="132" rx="12" fill="#12A39D"/>
  <rect x="284" y="294" width="132" height="52" rx="12" fill="#12A39D"/>
  <rect x="692" y="192" width="316" height="28" rx="14" fill="#D5F7F1"/>
  <rect x="692" y="244" width="220" height="22" rx="11" fill="#BDEBE3"/>
  <rect x="692" y="284" width="284" height="22" rx="11" fill="#BDEBE3"/>
  <rect x="692" y="472" width="316" height="28" rx="14" fill="#D5F7F1"/>
  <rect x="692" y="524" width="220" height="22" rx="11" fill="#BDEBE3"/>
  <rect x="692" y="564" width="284" height="22" rx="11" fill="#BDEBE3"/>
</svg>
