<svg width="1200" height="800" viewBox="0 0 1200 800" fill="none" xmlns="http://www.w3.org/2000/svg">
  <rect width="1200" height="800" rx="36" fill="#0E1C2B"/>
  <rect x="70" y="72" width="1060" height="656" rx="28" fill="#132D45"/>
  <rect x="120" y="130" width="320" height="200" rx="20" fill="#1E3E5C"/>
  <rect x="760" y="130" width="320" height="200" rx="20" fill="#1E3E5C"/>
  <rect x="120" y="470" width="320" height="200" rx="20" fill="#1E3E5C"/>
  <rect x="760" y="470" width="320" height="200" rx="20" fill="#1E3E5C"/>
  <rect x="496" y="252" width="208" height="296" rx="18" fill="#245073"/>
  <circle cx="600" cy="312" r="34" fill="#FF8A3D"/>
  <rect x="554" y="366" width="92" height="20" rx="10" fill="#DCE7F0"/>
  <rect x="538" y="402" width="124" height="20" rx="10" fill="#DCE7F0"/>
  <rect x="522" y="438" width="156" height="20" rx="10" fill="#DCE7F0"/>
  <path d="M440 230L500 300" stroke="#4F7FA5" stroke-width="8" stroke-linecap="round"/>
  <path d="M760 230L700 300" stroke="#4F7FA5" stroke-width="8" stroke-linecap="round"/>
  <path d="M440 570L500 500" stroke="#4F7FA5" stroke-width="8" stroke-linecap="round"/>
  <path d="M760 570L700 500" stroke="#4F7FA5" stroke-width="8" stroke-linecap="round"/>
</svg>
